<svg width="33" height="28" viewBox="0 0 33 28" fill="none" xmlns="http://www.w3.org/2000/svg">
<path d="M18.9532 17.9618C18.6282 17.9618 18.568 18.1888 18.5332 18.4055C18.508 18.5622 18.4201 18.7067 18.2843 18.815C18.1484 18.9232 17.9729 18.9886 17.787 19.0001C17.6011 19.0116 17.4162 18.9686 17.2633 18.8783C17.1103 18.788 16.9986 18.6558 16.9467 18.5039C16.9686 18.4874 16.9892 18.4697 17.0082 18.4508L17.7486 17.6477C17.8233 17.5665 17.8696 17.4692 17.8823 17.3669C17.895 17.2645 17.8735 17.1611 17.8203 17.0686C17.7672 16.9761 17.6844 16.8981 17.5815 16.8435C17.4786 16.789 17.3598 16.76 17.2384 16.76H15.758C15.6367 16.76 15.5177 16.7889 15.4148 16.8435C15.3119 16.898 15.2291 16.976 15.176 17.0686C15.1228 17.1612 15.1013 17.2645 15.1141 17.3669C15.1268 17.4694 15.1733 17.5667 15.248 17.6477L15.9882 18.4508C16.0073 18.4697 16.0278 18.4874 16.0497 18.504C16.0007 18.6484 15.8973 18.7753 15.7554 18.8654C15.6134 18.9554 15.4407 19.0036 15.2635 19.0026C15.0863 19.0017 14.9143 18.9516 14.7738 18.86C14.6332 18.7684 14.5318 18.6404 14.4849 18.4954C14.4183 18.2903 14.4743 18.069 14.1784 17.9818C14.123 17.9659 14.0642 17.9601 14.006 17.9648C13.9478 17.9695 13.8914 17.9847 13.8405 18.0092C13.7897 18.0337 13.7455 18.0671 13.711 18.1071C13.6764 18.1472 13.6522 18.193 13.64 18.2415C13.5901 18.4371 13.6741 18.6844 13.7654 18.8628C13.8657 19.0566 14.0162 19.2288 14.2059 19.3664C14.3955 19.504 14.6193 19.6035 14.8606 19.6575C14.8719 20.0196 15.0495 20.3637 15.3554 20.6164C15.6612 20.8691 16.0713 21.0105 16.4983 21.0105C16.9252 21.0105 17.3353 20.8691 17.6412 20.6164C17.9471 20.3637 18.1246 20.0196 18.1359 19.6575C18.3634 19.6066 18.5755 19.5153 18.7582 19.3895C18.9409 19.2638 19.0899 19.1065 19.1955 18.9281C19.3581 18.6507 19.5545 17.9618 18.9532 17.9618ZM16.4982 20.3105C16.2901 20.31 16.0901 20.2419 15.9394 20.1202C15.7886 19.9985 15.6986 19.8323 15.6877 19.656C16.0015 19.5857 16.2835 19.4379 16.4982 19.2315C16.713 19.4379 16.9951 19.5857 17.3088 19.656C17.298 19.8324 17.2079 19.9985 17.0571 20.1202C16.9064 20.2419 16.7064 20.31 16.4982 20.3105V20.3105Z" fill="black"/>
<path d="M29.8514 16.9961C29.851 16.7377 29.7776 16.4831 29.6375 16.2537C29.4973 16.0243 29.2945 15.8267 29.046 15.6774C29.1856 15.4331 29.2504 15.163 29.2344 14.8919C29.2183 14.6207 29.122 14.3574 28.9542 14.1263C28.7864 13.8952 28.5527 13.7037 28.2746 13.5695C27.9964 13.4353 27.6829 13.3629 27.363 13.3588C27.2999 13.071 27.1452 12.8033 26.9156 12.5847C26.6861 12.3661 26.3905 12.205 26.0608 12.1187C26.1338 11.7521 26.0552 11.3755 25.8382 11.0525C25.6212 10.7296 25.2792 10.4803 24.8703 10.3469C24.9405 10.1156 24.9493 9.87407 24.8961 9.6396C24.843 9.40512 24.7291 9.18358 24.5628 8.99095C24.3965 8.79832 24.1819 8.6394 23.9345 8.52565C23.6871 8.4119 23.413 8.34616 23.132 8.33317C23.1146 8.09475 23.0351 7.86256 22.8993 7.65335C22.7634 7.44413 22.5745 7.26309 22.3462 7.12328C22.118 6.98346 21.856 6.88834 21.5792 6.84478C21.3024 6.80122 21.0176 6.81031 20.7454 6.87137C20.642 6.64902 20.4817 6.4489 20.2761 6.28543C20.0705 6.12197 19.8247 5.99924 19.5565 5.92607C19.2883 5.85291 19.0043 5.83114 18.7249 5.86232C18.4456 5.89351 18.1779 5.97688 17.9411 6.10643C17.7626 5.9231 17.5385 5.77553 17.2849 5.67431C17.0313 5.57308 16.7545 5.52071 16.4742 5.52094H16.4682C16.187 5.52122 15.9094 5.57456 15.6555 5.67707C15.4015 5.77959 15.1777 5.92873 15 6.11369C14.7624 5.98515 14.4941 5.90298 14.2146 5.87312C13.935 5.84326 13.6511 5.86644 13.3833 5.941C13.1156 6.01556 12.8707 6.13964 12.6664 6.30427C12.462 6.4689 12.3033 6.66998 12.2017 6.89299C11.9292 6.83343 11.6446 6.82584 11.3683 6.87079C11.0919 6.91574 10.8307 7.0121 10.6035 7.15295C10.3763 7.29379 10.1887 7.47561 10.0543 7.68532C9.9198 7.89504 9.84178 8.12743 9.82583 8.3658C9.54486 8.38035 9.27119 8.44758 9.02453 8.56264C8.77786 8.67771 8.56433 8.83774 8.3993 9.03123C8.23428 9.22472 8.12187 9.44685 8.07017 9.68162C8.01846 9.9164 8.02875 10.158 8.10029 10.389C7.70087 10.5221 7.36632 10.766 7.15113 11.081C6.93593 11.3961 6.85277 11.7636 6.91517 12.1239C6.5908 12.213 6.30081 12.3747 6.07583 12.5921C5.85085 12.8095 5.69924 13.0744 5.637 13.3588C5.31711 13.3629 5.0036 13.4353 4.72547 13.5695C4.44734 13.7037 4.21358 13.8952 4.04581 14.1263C3.87804 14.3574 3.78168 14.6207 3.76564 14.8919C3.74961 15.163 3.81442 15.4331 3.95407 15.6774C3.69248 15.834 3.48171 16.044 3.3413 16.2882C3.20088 16.5323 3.13537 16.8025 3.15082 17.0738C3.16628 17.3452 3.26221 17.6088 3.42971 17.8403C3.59722 18.0717 3.83089 18.2636 4.10906 18.3981C3.9863 18.7111 3.9802 19.0487 4.0916 19.3648C4.203 19.681 4.42648 19.9603 4.73164 20.1648L4.73194 20.165C5.09241 20.4042 5.54165 20.5264 5.99886 20.5097C6.45607 20.493 6.89126 20.3385 7.22617 20.0739C7.57512 20.2409 7.97693 20.3109 8.37519 20.2742C8.77345 20.2375 9.14815 20.0958 9.44669 19.8692C9.53499 19.7998 9.61517 19.7233 9.68611 19.6408C9.74079 19.6475 9.79564 19.6537 9.85111 19.6563C9.86821 19.8946 9.94734 20.1268 10.0828 20.3361C10.2183 20.5454 10.4067 20.7266 10.6346 20.8667C10.8625 21.0068 11.1241 21.1023 11.4007 21.1464C11.6773 21.1905 11.9619 21.182 12.2342 21.1216C12.3372 21.3441 12.4971 21.5444 12.7023 21.7082C12.9076 21.8719 13.1531 21.995 13.4212 22.0686C13.6892 22.1421 13.9732 22.1643 14.2526 22.1335C14.532 22.1027 14.7998 22.0197 15.0369 21.8905C15.2156 22.0747 15.4402 22.223 15.6945 22.3247C15.9489 22.4265 16.2266 22.4792 16.5078 22.479C16.789 22.4789 17.0667 22.4258 17.3208 22.3238C17.575 22.2217 17.7993 22.0731 17.9777 21.8887C18.2151 22.0175 18.4832 22.1 18.7627 22.1303C19.0422 22.1605 19.3261 22.1379 19.594 22.0638C19.8619 21.9898 20.1071 21.8663 20.312 21.7021C20.5169 21.538 20.6763 21.3374 20.7787 21.1147C21.0512 21.175 21.336 21.1833 21.6126 21.1388C21.8892 21.0944 22.1508 20.9984 22.3784 20.8578C22.606 20.7172 22.7939 20.5355 22.9287 20.3257C23.0634 20.116 23.1416 19.8834 23.1576 19.6449C23.2076 19.6425 23.2574 19.6384 23.3068 19.6325C23.3795 19.7182 23.4622 19.7975 23.5535 19.8692C23.8522 20.0959 24.227 20.2375 24.6253 20.2742C25.0237 20.3108 25.4255 20.2407 25.7745 20.0736C26.1093 20.3382 26.5444 20.4928 27.0016 20.5096C27.4588 20.5263 27.908 20.404 28.2684 20.1648C28.5735 19.9603 28.797 19.6809 28.9084 19.3648C29.0198 19.0487 29.0138 18.7112 28.8911 18.3981C29.1826 18.2569 29.4249 18.0529 29.5935 17.8067C29.7622 17.5605 29.8511 17.2809 29.8514 16.9961V16.9961ZM9.47768 17.775C9.41104 17.7797 9.34675 17.7981 9.29035 17.8286C9.23394 17.859 9.18712 17.9007 9.15391 17.9499C9.1207 17.9992 9.1021 18.0546 9.09972 18.1113C9.09733 18.168 9.11122 18.2243 9.14021 18.2754C9.24919 18.4672 9.27587 18.6853 9.21565 18.892C9.15543 19.0987 9.01208 19.281 8.81032 19.4076C8.60857 19.5343 8.36107 19.5971 8.11051 19.5855C7.85995 19.5738 7.62205 19.4883 7.43784 19.3437C7.39338 19.3088 7.34041 19.2826 7.28267 19.267C7.22493 19.2514 7.16385 19.2467 7.10377 19.2534C7.04368 19.2601 6.98607 19.2779 6.93503 19.3056C6.88398 19.3333 6.84075 19.3702 6.80841 19.4137C6.79343 19.4342 6.77681 19.4537 6.75866 19.4722C6.57897 19.6594 6.31997 19.7795 6.03717 19.8067C5.75437 19.8338 5.4703 19.7659 5.24584 19.6174C5.03587 19.477 4.89548 19.275 4.85229 19.0511C4.80911 18.8272 4.86627 18.5978 5.01252 18.4079C5.04716 18.3613 5.06851 18.3086 5.07488 18.2538C5.08124 18.199 5.07244 18.1437 5.04917 18.0923C5.0259 18.0409 4.98881 17.9948 4.94085 17.9578C4.8929 17.9207 4.8354 17.8936 4.77293 17.8787C3.77818 17.654 3.71526 16.4319 4.68542 16.1361C4.74869 16.1168 4.80543 16.0847 4.85072 16.0425C4.896 16.0003 4.92845 15.9494 4.94524 15.8942C4.96203 15.8389 4.96265 15.781 4.94705 15.7255C4.93144 15.67 4.90009 15.6186 4.85572 15.5758C4.70453 15.4296 4.61223 15.2463 4.59224 15.0526C4.57225 14.8589 4.62562 14.6648 4.74458 14.4985C4.86354 14.3323 5.04189 14.2026 5.2537 14.1283C5.46551 14.054 5.69974 14.0389 5.92232 14.0854C5.98553 14.0987 6.05157 14.0991 6.11502 14.0867C6.17848 14.0742 6.23755 14.0491 6.2874 14.0135C6.33724 13.978 6.37645 13.9329 6.40181 13.882C6.42718 13.8311 6.43797 13.7758 6.43331 13.7207C6.41354 13.4869 6.50043 13.2557 6.67598 13.0747C6.85154 12.8938 7.10234 12.7771 7.3765 12.7487C7.65066 12.7202 7.9272 12.7823 8.14892 12.9221C8.37065 13.0618 8.52058 13.2685 8.56771 13.4994C8.57295 13.5253 8.57708 13.5512 8.5796 13.5782C8.58447 13.6289 8.60231 13.6782 8.63188 13.7224C8.66146 13.7667 8.70205 13.805 8.75083 13.8346C8.79962 13.8642 8.85542 13.8844 8.91436 13.8939C8.9733 13.9033 9.03395 13.9017 9.0921 13.8892C9.33548 13.8376 9.59249 13.8596 9.81872 13.9517C10.045 14.0437 10.2262 14.1999 10.3311 14.3932C10.4361 14.5866 10.4581 14.805 10.3935 15.0106C10.3288 15.2163 10.1815 15.3964 9.97704 15.5197C9.92252 15.5525 9.87821 15.596 9.84792 15.6465C9.81762 15.6971 9.80225 15.7531 9.80312 15.8098C9.80399 15.8665 9.82108 15.9221 9.85292 15.972C9.88476 16.0218 9.9304 16.0643 9.9859 16.0959C10.1663 16.1992 10.3059 16.346 10.3867 16.5175C10.4675 16.6889 10.4857 16.877 10.439 17.0573L10.4382 17.0595C10.4355 17.0671 10.4327 17.0752 10.4317 17.0785C10.4287 17.0875 10.4263 17.0966 10.4244 17.1057C10.4237 17.1075 10.4233 17.1088 10.4232 17.109C10.3641 17.2884 10.2419 17.4482 10.073 17.5672C9.90405 17.6862 9.69639 17.7587 9.47768 17.775ZM22.9606 18.9426C22.9075 18.9395 22.8546 18.933 22.8026 18.9231C22.7343 18.9096 22.6631 18.9111 22.5956 18.9274C22.5282 18.9437 22.4667 18.9744 22.4171 19.0165C22.3675 19.0586 22.3314 19.1107 22.3121 19.1679C22.2929 19.2251 22.2911 19.2856 22.3071 19.3436C22.3558 19.5186 22.3425 19.7019 22.2689 19.8706C22.1953 20.0392 22.0647 20.1857 21.8933 20.2916C21.722 20.3975 21.5177 20.4581 21.3059 20.4659C21.0942 20.4736 20.8844 20.4282 20.703 20.3352C20.6429 20.3045 20.5746 20.2873 20.5045 20.2852C20.4343 20.2831 20.3648 20.2962 20.3023 20.3233C20.2398 20.3504 20.1865 20.3906 20.1474 20.44C20.1083 20.4894 20.0848 20.5465 20.0789 20.6058C20.061 20.785 19.9812 20.9557 19.8496 21.0966C19.718 21.2376 19.5403 21.3424 19.3388 21.3982C19.1373 21.4539 18.9209 21.4579 18.7167 21.4099C18.5125 21.3618 18.3295 21.2637 18.1906 21.1279C18.1448 21.0829 18.0861 21.0485 18.0202 21.0281C17.9544 21.0076 17.8834 21.0018 17.8141 21.011C17.7449 21.0203 17.6795 21.0445 17.6243 21.0811C17.569 21.1178 17.5257 21.1659 17.4985 21.2207C17.4165 21.3863 17.2787 21.5277 17.1024 21.627C16.926 21.7264 16.719 21.7793 16.5073 21.779C16.2949 21.7813 16.0867 21.7294 15.9096 21.6299C15.7325 21.5305 15.5948 21.3881 15.5143 21.2214C15.4869 21.1666 15.4434 21.1187 15.3881 21.0822C15.3328 21.0457 15.2674 21.0217 15.1981 21.0126C15.1289 21.0034 15.058 21.0094 14.9922 21.03C14.9264 21.0505 14.8679 21.085 14.8221 21.1301C14.6836 21.2662 14.5008 21.3646 14.2966 21.413C14.0925 21.4614 13.8761 21.4577 13.6744 21.4023C13.4727 21.3469 13.2948 21.2423 13.1628 21.1016C13.0308 20.9609 12.9507 20.7902 12.9324 20.611C12.9263 20.5517 12.9025 20.4947 12.8633 20.4454C12.824 20.3961 12.7706 20.3561 12.708 20.3291C12.6454 20.3022 12.5758 20.2893 12.5057 20.2915C12.4356 20.2938 12.3674 20.3112 12.3074 20.342C12.1261 20.4349 11.9167 20.4804 11.7052 20.4728C11.4937 20.4652 11.2895 20.405 11.1181 20.2995C10.9467 20.1941 10.8157 20.0482 10.7415 19.8799C10.6672 19.7117 10.653 19.5287 10.7007 19.3537C10.7153 19.2959 10.7126 19.2359 10.6929 19.1792C10.6731 19.1225 10.6368 19.0709 10.5875 19.0292C10.5381 18.9874 10.4772 18.9569 10.4103 18.9403C10.3434 18.9238 10.2727 18.9217 10.2046 18.9344C10.1496 18.945 10.0938 18.9518 10.0375 18.9547C10.0783 18.7647 10.0789 18.57 10.0393 18.3798C10.3219 18.2916 10.5759 18.1479 10.7805 17.9604C10.9851 17.7729 11.1345 17.547 11.2164 17.3012C11.2167 17.3006 11.2273 17.2694 11.2275 17.2687C11.2312 17.2581 11.2343 17.2473 11.2368 17.2364C11.2375 17.2342 11.238 17.232 11.2387 17.2298C11.3073 16.9803 11.3054 16.7206 11.2332 16.4718C11.1609 16.223 11.0203 15.9922 10.823 15.7983C11.0534 15.5601 11.1986 15.271 11.2415 14.965C11.2843 14.659 11.2228 14.349 11.0645 14.0717C10.9061 13.7943 10.6575 13.5613 10.3479 13.4002C10.0384 13.239 9.68089 13.1565 9.31778 13.1624C9.20666 12.8688 8.99877 12.6084 8.71871 12.4119C8.43864 12.2154 8.0981 12.0911 7.73739 12.0536C7.71049 11.9287 7.71465 11.8004 7.7496 11.6769C7.78454 11.5535 7.84951 11.4375 7.94033 11.3366C8.03115 11.2357 8.14582 11.1519 8.27699 11.0908C8.40817 11.0297 8.55295 10.9924 8.70206 10.9815C8.77195 10.9764 8.83913 10.9562 8.89727 10.9229C8.9554 10.8896 9.00256 10.8442 9.0343 10.7912C9.06603 10.7381 9.08129 10.679 9.07863 10.6195C9.07596 10.56 9.05547 10.5021 9.01908 10.4512C8.90933 10.2974 8.85544 10.1196 8.86416 9.93992C8.87288 9.76027 8.94383 9.58678 9.06812 9.44115C9.19242 9.29552 9.36455 9.18421 9.563 9.12114C9.76145 9.05806 9.97741 9.04602 10.1839 9.08652C10.2523 9.09986 10.3235 9.09819 10.3909 9.08166C10.4583 9.06512 10.5196 9.03428 10.5691 8.99204C10.6185 8.9498 10.6544 8.89757 10.6734 8.84027C10.6925 8.78297 10.6939 8.7225 10.6777 8.66458C10.6293 8.48973 10.6427 8.30665 10.7163 8.13823C10.7898 7.96981 10.9202 7.8235 11.0911 7.71759C11.2621 7.61168 11.4661 7.55086 11.6775 7.54274C11.889 7.53461 12.0986 7.57954 12.2801 7.67191C12.3402 7.70235 12.4085 7.71932 12.4785 7.7212C12.5484 7.72309 12.6178 7.70984 12.6801 7.68269C12.7424 7.65555 12.7955 7.6154 12.8344 7.56604C12.8734 7.51668 12.8968 7.45972 12.9027 7.40052C12.92 7.22117 12.9992 7.05013 13.1306 6.90882C13.2619 6.76751 13.4394 6.66221 13.6409 6.6061C13.8424 6.54999 14.059 6.54557 14.2634 6.59339C14.4679 6.64121 14.6512 6.73914 14.7904 6.87493C14.8364 6.91985 14.8951 6.95404 14.9611 6.97424C15.027 6.99445 15.098 7 15.1672 6.99037C15.4663 6.94932 15.517 6.65797 15.7026 6.4962C15.8028 6.40952 15.9223 6.34057 16.0542 6.29333C16.1861 6.24609 16.3276 6.2215 16.4708 6.22099H16.4741C16.7529 6.22141 17.0208 6.3131 17.222 6.47697C17.418 6.63724 17.4787 6.94512 17.7825 6.98456C17.8518 6.99365 17.9227 6.98756 17.9885 6.96687C18.0543 6.94617 18.1127 6.91155 18.1583 6.8663C18.2965 6.7301 18.479 6.6315 18.6829 6.58284C18.8868 6.53418 19.1031 6.53762 19.3047 6.59272C19.5063 6.64782 19.6843 6.75214 19.8164 6.89263C19.9485 7.03312 20.0289 7.20354 20.0475 7.38258C20.0535 7.44196 20.0773 7.49905 20.1167 7.54843C20.156 7.59781 20.2096 7.63785 20.2723 7.66474C20.3349 7.69164 20.4047 7.70451 20.4749 7.70213C20.5451 7.69975 20.6134 7.6822 20.6733 7.65115C20.8543 7.55773 21.0638 7.51168 21.2755 7.51876C21.4872 7.52584 21.6917 7.58574 21.8635 7.69095C22.0353 7.79617 22.1666 7.94203 22.2412 8.11028C22.3158 8.27854 22.3302 8.46171 22.2827 8.63689C22.2669 8.6949 22.2689 8.75536 22.2884 8.81255C22.3079 8.86974 22.3442 8.92176 22.394 8.96371C22.4438 9.00566 22.5054 9.03614 22.5729 9.05228C22.6404 9.06841 22.7117 9.06967 22.78 9.05593C22.9859 9.01431 23.2018 9.02519 23.4005 9.08719C23.5992 9.14919 23.772 9.25956 23.8971 9.40447C24.0223 9.54939 24.0942 9.72242 24.104 9.90188C24.1138 10.0813 24.0609 10.2593 23.9521 10.4133C23.9171 10.4646 23.8978 10.5225 23.8961 10.5817C23.8944 10.6409 23.9102 10.6995 23.9421 10.7521C23.9741 10.8048 24.0211 10.8498 24.0789 10.883C24.1367 10.9162 24.2034 10.9365 24.2728 10.9422C24.4269 10.9528 24.5764 10.9913 24.7113 11.0553C24.8462 11.1192 24.9634 11.2071 25.0547 11.3128C25.1461 11.4185 25.2097 11.5397 25.241 11.6681C25.2723 11.7965 25.2708 11.9291 25.2364 12.0569C24.8808 12.0979 24.5461 12.2235 24.2711 12.4191C23.9961 12.6147 23.7919 12.8724 23.6823 13.1623C23.3192 13.1565 22.9617 13.239 22.6521 13.4001C22.3426 13.5613 22.0939 13.7943 21.9355 14.0716C21.7772 14.3489 21.7158 14.6589 21.7586 14.9649C21.8014 15.2709 21.9466 15.5601 22.1771 15.7983C21.9797 15.9922 21.8392 16.223 21.767 16.4717C21.6947 16.7205 21.6928 16.9803 21.7614 17.2298C21.7644 17.2406 21.768 17.2513 21.7721 17.2617C21.7749 17.2737 21.7782 17.2854 21.7821 17.2969C21.8638 17.5436 22.0133 17.7703 22.2181 17.9585C22.423 18.1467 22.6775 18.2911 22.9608 18.3798C22.9222 18.5659 22.9222 18.7564 22.9607 18.9426H22.9606ZM28.2272 17.8787C28.1647 17.8936 28.1072 17.9207 28.0592 17.9577C28.0113 17.9948 27.9742 18.0409 27.9509 18.0923C27.9276 18.1437 27.9188 18.199 27.9252 18.2538C27.9315 18.3086 27.9529 18.3613 27.9875 18.4079C28.1337 18.5977 28.1909 18.8271 28.1478 19.051C28.1046 19.2748 27.9643 19.4768 27.7544 19.6173C27.5286 19.7663 27.2427 19.8341 26.9585 19.8058C26.6743 19.7775 26.4146 19.6555 26.2356 19.4662C26.2196 19.4495 26.2048 19.432 26.1916 19.4137C26.1592 19.3702 26.116 19.3333 26.0649 19.3056C26.0139 19.2779 25.9563 19.2601 25.8962 19.2534C25.8361 19.247 25.7751 19.2517 25.7174 19.2673C25.6597 19.2829 25.6068 19.309 25.5621 19.3437C25.3779 19.4883 25.14 19.5737 24.8895 19.5854C24.639 19.597 24.3915 19.5341 24.1898 19.4075C23.9881 19.2809 23.8447 19.0986 23.7845 18.8919C23.7243 18.6853 23.7509 18.4672 23.8599 18.2755C23.8889 18.2243 23.9027 18.168 23.9003 18.1113C23.8979 18.0546 23.8793 17.9992 23.8461 17.95C23.8129 17.9007 23.7661 17.8591 23.7097 17.8286C23.6533 17.7981 23.589 17.7797 23.5223 17.775C23.3036 17.7587 23.096 17.6862 22.9271 17.5672C22.7581 17.4482 22.636 17.2884 22.5769 17.109C22.5768 17.1088 22.5764 17.1076 22.5758 17.1058C22.5738 17.0967 22.5713 17.0875 22.5684 17.0785C22.568 17.0773 22.5676 17.0761 22.5673 17.0749C22.5648 17.0654 22.5618 17.056 22.5584 17.0468C22.5147 16.8678 22.5346 16.6818 22.6158 16.5125C22.6969 16.3432 22.8356 16.1982 23.0141 16.0959C23.0696 16.0643 23.1153 16.0218 23.1471 15.972C23.179 15.9221 23.196 15.8665 23.1969 15.8098C23.1978 15.7531 23.1824 15.6971 23.1521 15.6465C23.1218 15.596 23.0775 15.5525 23.023 15.5197C22.8185 15.3964 22.6712 15.2163 22.6065 15.0106C22.5419 14.805 22.5639 14.5866 22.6689 14.3932C22.7738 14.1999 22.9551 14.0437 23.1813 13.9517C23.4075 13.8596 23.6646 13.8376 23.9079 13.8892C23.9661 13.9017 24.0267 13.9033 24.0857 13.8939C24.1446 13.8844 24.2004 13.8642 24.2492 13.8346C24.298 13.805 24.3386 13.7667 24.3681 13.7224C24.3977 13.6782 24.4156 13.6289 24.4204 13.5782C24.423 13.5512 24.4271 13.5253 24.4323 13.4994C24.4796 13.2686 24.6296 13.0621 24.8513 12.9225C25.073 12.7829 25.3494 12.7209 25.6234 12.7493C25.8975 12.7777 26.1482 12.8943 26.3237 13.0751C26.4993 13.2559 26.5863 13.487 26.5667 13.7207C26.5621 13.7758 26.5729 13.8311 26.5982 13.882C26.6236 13.9329 26.6628 13.978 26.7126 14.0135C26.7625 14.0491 26.8216 14.0742 26.885 14.0867C26.9485 14.0991 27.0145 14.0987 27.0777 14.0854C27.3003 14.0389 27.5345 14.054 27.7463 14.1283C27.9582 14.2026 28.1365 14.3323 28.2555 14.4985C28.3744 14.6648 28.4278 14.8589 28.4078 15.0526C28.3878 15.2463 28.2955 15.4296 28.1443 15.5758C28.1 15.6186 28.0686 15.6701 28.0531 15.7256C28.0375 15.7811 28.0381 15.8389 28.0549 15.8942C28.0717 15.9494 28.1041 16.0003 28.1494 16.0425C28.1947 16.0847 28.2515 16.1168 28.3147 16.1361C29.2847 16.4319 29.2219 17.654 28.2272 17.8787H28.2272Z" fill="black"/>
<path d="M14.2729 15.3832V14.8288C14.2729 14.6199 14.1752 14.4196 14.0011 14.2719C13.827 14.1242 13.591 14.0413 13.3448 14.0413C13.0987 14.0413 12.8626 14.1242 12.6885 14.2719C12.5145 14.4196 12.4167 14.6199 12.4167 14.8288V15.3832C12.4167 15.5921 12.5145 15.7924 12.6885 15.9401C12.8626 16.0878 13.0987 16.1707 13.3448 16.1707C13.591 16.1707 13.827 16.0878 14.0011 15.9401C14.1752 15.7924 14.2729 15.5921 14.2729 15.3832V15.3832Z" fill="black"/>
<path d="M19.6517 14.0413C19.4056 14.0415 19.1697 14.1246 18.9957 14.2722C18.8217 14.4198 18.7238 14.62 18.7235 14.8288V15.3832C18.7235 15.5921 18.8213 15.7924 18.9954 15.9401C19.1694 16.0878 19.4055 16.1707 19.6517 16.1707C19.8978 16.1707 20.1339 16.0878 20.3079 15.9401C20.482 15.7924 20.5798 15.5921 20.5798 15.3832V14.8288C20.5795 14.62 20.4816 14.4198 20.3076 14.2722C20.1336 14.1245 19.8977 14.0415 19.6517 14.0413V14.0413Z" fill="black"/>
</svg>
