<svg width="32" height="21" viewBox="0 0 32 21" fill="none" xmlns="http://www.w3.org/2000/svg">
<path d="M12.8346 8.98102C12.5877 8.9812 12.3511 9.04564 12.1765 9.16018C12.002 9.27472 11.9038 9.43002 11.9035 9.59201V10.0222C11.9035 10.1842 12.0016 10.3396 12.1762 10.4542C12.3508 10.5688 12.5876 10.6332 12.8346 10.6332C13.0815 10.6332 13.3183 10.5688 13.4929 10.4542C13.6675 10.3396 13.7656 10.1842 13.7656 10.0222V9.59201C13.7653 9.43002 13.6671 9.27472 13.4926 9.16018C13.3181 9.04564 13.0814 8.9812 12.8346 8.98102V8.98102Z" fill="black"/>
<path d="M19.1612 8.98102C18.9143 8.9812 18.6777 9.04563 18.5031 9.16018C18.3286 9.27472 18.2304 9.43002 18.2301 9.59201V10.0222C18.2298 10.1026 18.2537 10.1822 18.3003 10.2565C18.3469 10.3308 18.4155 10.3984 18.502 10.4553C18.5885 10.5122 18.6912 10.5573 18.8043 10.5881C18.9174 10.6189 19.0387 10.6348 19.1612 10.6348C19.2836 10.6348 19.4049 10.6189 19.518 10.5881C19.6311 10.5573 19.7339 10.5122 19.8204 10.4553C19.9069 10.3984 19.9754 10.3308 20.022 10.2565C20.0687 10.1822 20.0925 10.1026 20.0922 10.0222V9.59201C20.0919 9.43002 19.9937 9.27472 19.8192 9.16018C19.6447 9.04564 19.408 8.98121 19.1612 8.98102V8.98102Z" fill="black"/>
<path d="M19.2797 12.1678C18.8149 12.1678 18.9137 12.5117 18.8059 12.707C18.7142 12.8737 18.5422 13.0161 18.3159 13.1128C18.0897 13.2095 17.8216 13.2551 17.5523 13.2427C17.2829 13.2303 17.0271 13.1607 16.8236 13.0443C16.62 12.9279 16.4799 12.7711 16.4244 12.5977C16.4714 12.5744 16.5137 12.5474 16.5504 12.5171L17.4875 11.7308C17.568 11.6633 17.6179 11.5822 17.6316 11.4969C17.6453 11.4116 17.6222 11.3255 17.5649 11.2484C17.5077 11.1713 17.4185 11.1063 17.3077 11.0608C17.1969 11.0154 17.0688 10.9913 16.9381 10.9913H15.0641C14.9334 10.9913 14.8054 11.0154 14.6945 11.0608C14.5837 11.1063 14.4946 11.1713 14.4373 11.2484C14.38 11.3255 14.3569 11.4116 14.3706 11.4969C14.3843 11.5822 14.4343 11.6633 14.5148 11.7308L15.4517 12.5171C15.4869 12.5463 15.5273 12.5726 15.5721 12.5954C15.345 13.3167 13.8293 13.4694 13.2771 12.8312C13.2166 12.7612 13.1722 12.6857 13.1456 12.6071C13.1181 12.5261 13.135 12.4397 13.1018 12.3605C13.0847 12.3221 13.0547 12.2867 13.0138 12.257C12.9729 12.2272 12.9223 12.2039 12.8658 12.1889C12.8093 12.1738 12.7483 12.1673 12.6874 12.1698C12.6266 12.1724 12.5673 12.184 12.5142 12.2037C12.0802 12.3703 12.4128 12.9052 12.603 13.1143C12.7503 13.2754 12.947 13.4145 13.1806 13.5229C13.4143 13.6312 13.6798 13.7065 13.9602 13.7438V14.488C13.9602 14.8432 14.1753 15.1839 14.558 15.4351C14.9407 15.6862 15.4598 15.8273 16.0011 15.8273C16.5424 15.8273 17.0615 15.6862 17.4442 15.4351C17.827 15.1839 18.042 14.8432 18.042 14.488V13.7432C18.3226 13.7052 18.5881 13.6293 18.8214 13.5201C19.0547 13.411 19.2508 13.2711 19.3971 13.1094C19.5881 12.8973 19.9886 12.1678 19.2797 12.1678ZM17.242 14.4881C17.242 14.704 17.1112 14.9112 16.8785 15.0639C16.6458 15.2166 16.3302 15.3024 16.0011 15.3024C15.672 15.3024 15.3564 15.2166 15.1237 15.0639C14.891 14.9112 14.7602 14.704 14.7602 14.4881V13.7432C15.2568 13.6767 15.6979 13.4914 15.9978 13.2234C16.2992 13.4926 16.7429 13.6782 17.242 13.7439V14.4881Z" fill="black"/>
<path d="M28.0968 2.68235C27.8752 2.55925 27.6076 2.47727 27.3215 2.44491C27.0355 2.41255 26.7414 2.43098 26.4699 2.49829C22.9201 3.35699 20.182 4.78446 18.7691 5.62718C18.1925 5.50272 17.5894 5.43926 16.9824 5.43918H15.0166C14.4096 5.43926 13.8065 5.50272 13.2299 5.62718C11.8169 4.78448 9.07889 3.35699 5.52909 2.49829C4.35227 2.21378 3.12096 2.89239 3.34354 3.70171C3.95506 5.92406 5.37528 7.79059 6.45897 8.96498C7.07101 9.63006 7.9696 10.1612 9.04129 10.4914L8.739 12.2966L8.73858 12.2991L8.19657 15.5361C8.19576 15.5409 8.19676 15.5455 8.19636 15.5503C8.13834 16.2402 8.82585 16.879 9.5938 17.302C10.6337 17.8747 11.9614 18.2033 13.2761 18.3861C14.8872 18.6065 16.5465 18.6295 18.1704 18.4541C19.5424 18.3066 20.9285 18.0122 22.0661 17.4748C22.9855 17.0404 23.8693 16.3413 23.8027 15.5503C23.8023 15.5455 23.8033 15.5409 23.8025 15.5361L23.2604 12.299C23.2603 12.2983 23.2602 12.2976 23.2601 12.297L22.9577 10.4914C24.0294 10.1612 24.928 9.63011 25.5401 8.96509C26.6238 7.7905 28.044 5.92397 28.6554 3.70175C28.7093 3.51458 28.6859 3.32136 28.5877 3.14212C28.4894 2.96288 28.3199 2.80414 28.0968 2.68235V2.68235ZM23.0043 15.5745C22.9975 16.1629 22.3764 16.6501 21.6937 16.9871C20.7319 17.462 19.5479 17.7344 18.378 17.8892C16.9796 18.0724 15.543 18.0927 14.1339 17.9491C12.9117 17.825 11.6777 17.5796 10.6321 17.1364C9.8158 16.7904 9.00269 16.2554 8.99486 15.5745L9.50583 12.5229L12.4521 11.9195C13.1334 11.7817 13.7421 11.5213 14.2092 11.1678C14.6762 10.8144 14.9828 10.382 15.0942 9.91995L15.6731 7.57168C15.7323 7.33126 16.2681 7.33062 16.3274 7.57174L16.9049 9.91995C17.0162 10.382 17.3229 10.8144 17.7899 11.1678C18.2569 11.5213 18.8656 11.7817 19.5469 11.9195L22.4932 12.5229L23.0043 15.5745ZM27.8681 3.6084C27.5596 4.69934 27.0573 5.76281 26.3718 6.77707C26.0873 7.20316 25.7754 7.62072 25.436 8.02977C25.1241 8.40607 24.8085 8.79287 24.3884 9.12262C23.846 9.54665 23.1556 9.87841 22.3758 10.0896C22.3689 10.0915 22.3631 10.0944 22.3565 10.0965C22.3436 10.1004 22.3311 10.1048 22.319 10.1097C22.308 10.1141 22.2978 10.1189 22.2876 10.1239C22.2774 10.1291 22.2675 10.1343 22.2581 10.14C22.2484 10.146 22.2391 10.1522 22.2303 10.1588C22.2221 10.1649 22.2143 10.1711 22.207 10.1776C22.1993 10.1845 22.1922 10.1917 22.1856 10.1991C22.1791 10.2063 22.1731 10.2136 22.1676 10.2212C22.1622 10.2288 22.1576 10.2364 22.1533 10.2443C22.1489 10.2523 22.1451 10.2603 22.1419 10.2686C22.1388 10.277 22.1362 10.2855 22.1344 10.2941C22.1326 10.3021 22.1312 10.31 22.1305 10.3181C22.1298 10.3278 22.13 10.3375 22.1309 10.3471C22.1313 10.3517 22.1303 10.3562 22.1311 10.3609L22.3978 11.9534L19.7851 11.4184C19.2461 11.3093 18.7645 11.1033 18.3949 10.8236C18.0254 10.5439 17.7828 10.2019 17.6946 9.83624L17.1173 7.48809C17.078 7.31289 16.943 7.15301 16.7376 7.0382C16.5321 6.92338 16.2701 6.86144 16.0003 6.86388C15.7313 6.86346 15.471 6.92609 15.2662 7.04049C15.0615 7.15489 14.9257 7.31354 14.8834 7.48783L14.3046 9.83611C14.2164 10.2018 13.9737 10.5438 13.6042 10.8235C13.2346 11.1032 12.7529 11.3093 12.2138 11.4184L9.60118 11.9534L9.86785 10.3609C9.86863 10.3562 9.86765 10.3517 9.86805 10.3471C9.86901 10.3375 9.86915 10.3278 9.86847 10.3181C9.86784 10.31 9.86638 10.3021 9.8646 10.2941C9.86264 10.2855 9.86028 10.277 9.85705 10.2686C9.85388 10.2603 9.85005 10.2523 9.8457 10.2443C9.84142 10.2364 9.83673 10.2288 9.83132 10.2212C9.82592 10.2136 9.8199 10.2063 9.81339 10.1991C9.8068 10.1917 9.79964 10.1845 9.79195 10.1776C9.78462 10.1711 9.77685 10.1648 9.76864 10.1588C9.75988 10.1522 9.75062 10.146 9.74088 10.14C9.73146 10.1343 9.7216 10.1291 9.71134 10.1239C9.70121 10.1189 9.69093 10.1141 9.67997 10.1097C9.66785 10.1048 9.65535 10.1004 9.64252 10.0965C9.63584 10.0944 9.63005 10.0915 9.62314 10.0896C8.58948 9.81093 7.72 9.32125 7.14335 8.69306C6.09453 7.55654 4.7206 5.75179 4.13085 3.6084C4.10339 3.5123 4.11537 3.41313 4.16557 3.32106C4.21577 3.229 4.30239 3.14736 4.41653 3.0845C4.53067 3.02165 4.66823 2.97986 4.8151 2.9634C4.96198 2.94695 5.11288 2.95643 5.25233 2.99087C8.4564 3.76592 10.9798 5.02454 12.4116 5.85144C11.7479 6.07389 11.1567 6.37921 10.6712 6.75027C10.6021 6.8031 10.5678 6.87178 10.5759 6.94119C10.5839 7.01061 10.6337 7.07508 10.7141 7.12044C10.7951 7.16506 10.8995 7.18709 11.0049 7.18182C11.1104 7.17655 11.2085 7.14439 11.2782 7.09224C11.7404 6.73833 12.3138 6.45426 12.9591 6.25954C13.6045 6.06482 14.3063 5.96406 15.0166 5.96418H16.9824C17.6927 5.96406 18.3945 6.06482 19.0398 6.25954C19.6851 6.45426 20.2586 6.73833 20.7208 7.09224C20.7905 7.1444 20.8886 7.17657 20.994 7.18184C21.0995 7.18711 21.2039 7.16507 21.2848 7.12044C21.3653 7.07508 21.4151 7.01061 21.4231 6.94119C21.4312 6.87178 21.3969 6.8031 21.3278 6.75027C20.8423 6.37921 20.2511 6.07389 19.5873 5.85144C21.0191 5.02454 23.5426 3.76592 26.7467 2.99087C26.8861 2.95643 27.037 2.94695 27.1839 2.96341C27.3307 2.97986 27.4683 3.02166 27.5824 3.08451C27.6966 3.14736 27.7832 3.229 27.8334 3.32107C27.8836 3.41313 27.8956 3.5123 27.8681 3.6084V3.6084Z" fill="black"/>
</svg>
