<svg width="33" height="28" viewBox="0 0 33 28" fill="none" xmlns="http://www.w3.org/2000/svg">
<path d="M18.9533 17.9618C18.6284 17.9618 18.5682 18.1888 18.5334 18.4055C18.5081 18.5622 18.4202 18.7067 18.2844 18.815C18.1485 18.9232 17.973 18.9886 17.7871 19.0001C17.6013 19.0116 17.4164 18.9686 17.2634 18.8783C17.1104 18.788 16.9987 18.6558 16.9469 18.5039C16.9688 18.4874 16.9893 18.4697 17.0083 18.4508L17.7487 17.6477C17.8234 17.5665 17.8698 17.4692 17.8824 17.3669C17.8951 17.2645 17.8737 17.1611 17.8205 17.0686C17.7673 16.9761 17.6845 16.8981 17.5817 16.8435C17.4788 16.789 17.3599 16.76 17.2386 16.76H15.7581C15.6368 16.76 15.5179 16.7889 15.4149 16.8435C15.312 16.898 15.2293 16.976 15.1761 17.0686C15.1229 17.1612 15.1015 17.2645 15.1142 17.3669C15.127 17.4694 15.1734 17.5667 15.2482 17.6477L15.9884 18.4508C16.0074 18.4697 16.0279 18.4874 16.0498 18.504C16.0008 18.6484 15.8974 18.7753 15.7555 18.8654C15.6135 18.9554 15.4408 19.0036 15.2636 19.0026C15.0864 19.0017 14.9145 18.9516 14.7739 18.86C14.6333 18.7684 14.5319 18.6404 14.485 18.4954C14.4184 18.2903 14.4744 18.069 14.1785 17.9818C14.1231 17.9659 14.0643 17.9601 14.0061 17.9648C13.9479 17.9695 13.8915 17.9847 13.8407 18.0092C13.7898 18.0337 13.7457 18.0671 13.7111 18.1071C13.6765 18.1472 13.6523 18.193 13.6401 18.2415C13.5903 18.4371 13.6743 18.6844 13.7655 18.8628C13.8658 19.0566 14.0164 19.2288 14.206 19.3664C14.3956 19.504 14.6194 19.6035 14.8607 19.6575C14.8721 20.0196 15.0496 20.3637 15.3555 20.6164C15.6614 20.8691 16.0714 21.0105 16.4984 21.0105C16.9253 21.0105 17.3354 20.8691 17.6413 20.6164C17.9472 20.3637 18.1247 20.0196 18.1361 19.6575C18.3635 19.6066 18.5757 19.5153 18.7583 19.3895C18.941 19.2638 19.0901 19.1065 19.1956 18.9281C19.3582 18.6507 19.5546 17.9618 18.9533 17.9618ZM16.4984 20.3105C16.2902 20.31 16.0903 20.2419 15.9395 20.1202C15.7888 19.9985 15.6987 19.8323 15.6878 19.656C16.0016 19.5857 16.2837 19.4379 16.4984 19.2315C16.7131 19.4379 16.9952 19.5857 17.309 19.656C17.2981 19.8324 17.208 19.9985 17.0572 20.1202C16.9065 20.2419 16.7065 20.31 16.4984 20.3105Z" fill="black"/>
<path d="M29.8515 16.9961C29.851 16.7377 29.7777 16.4831 29.6375 16.2537C29.4974 16.0243 29.2946 15.8267 29.046 15.6774C29.1857 15.4331 29.2505 15.163 29.2344 14.8919C29.2184 14.6207 29.1221 14.3574 28.9543 14.1263C28.7865 13.8952 28.5528 13.7037 28.2746 13.5695C27.9965 13.4353 27.683 13.3629 27.3631 13.3588C27.2999 13.071 27.1452 12.8033 26.9157 12.5847C26.6862 12.3661 26.3906 12.205 26.0609 12.1187C26.1339 11.7521 26.0552 11.3755 25.8382 11.0525C25.6212 10.7296 25.2793 10.4803 24.8704 10.3469C24.9405 10.1156 24.9494 9.87407 24.8962 9.6396C24.843 9.40512 24.7292 9.18358 24.5629 8.99095C24.3966 8.79832 24.182 8.6394 23.9346 8.52565C23.6872 8.4119 23.4131 8.34616 23.1321 8.33317C23.1147 8.09475 23.0352 7.86256 22.8993 7.65335C22.7635 7.44413 22.5746 7.26309 22.3463 7.12328C22.118 6.98346 21.8561 6.88834 21.5792 6.84478C21.3024 6.80122 21.0177 6.81031 20.7455 6.87137C20.642 6.64902 20.4817 6.4489 20.2762 6.28543C20.0706 6.12197 19.8248 5.99924 19.5566 5.92607C19.2884 5.85291 19.0043 5.83114 18.725 5.86232C18.4457 5.89351 18.178 5.97688 17.9412 6.10643C17.7627 5.9231 17.5386 5.77553 17.285 5.67431C17.0314 5.57308 16.7545 5.52071 16.4743 5.52094H16.4683C16.1871 5.52122 15.9095 5.57456 15.6556 5.67707C15.4016 5.77959 15.1777 5.92873 15.0001 6.11369C14.7625 5.98515 14.4942 5.90298 14.2146 5.87312C13.935 5.84326 13.6511 5.86644 13.3834 5.941C13.1157 6.01556 12.8708 6.13964 12.6665 6.30427C12.4621 6.4689 12.3034 6.66998 12.2018 6.89299C11.9293 6.83343 11.6447 6.82584 11.3683 6.87079C11.092 6.91574 10.8308 7.0121 10.6036 7.15295C10.3764 7.29379 10.1888 7.47561 10.0543 7.68532C9.91987 7.89504 9.84185 8.12743 9.8259 8.3658C9.54494 8.38035 9.27127 8.44758 9.0246 8.56264C8.77793 8.67771 8.5644 8.83774 8.39938 9.03123C8.23436 9.22472 8.12195 9.44685 8.07024 9.68162C8.01854 9.9164 8.02883 10.158 8.10037 10.389C7.70094 10.5221 7.3664 10.766 7.1512 11.081C6.93601 11.3961 6.85284 11.7636 6.91525 12.1239C6.59088 12.213 6.30089 12.3747 6.07591 12.5921C5.85093 12.8095 5.69932 13.0744 5.63708 13.3588C5.31719 13.3629 5.00367 13.4353 4.72554 13.5695C4.44741 13.7037 4.21365 13.8952 4.04588 14.1263C3.87811 14.3574 3.78175 14.6207 3.76572 14.8919C3.74968 15.163 3.81449 15.4331 3.95415 15.6774C3.69256 15.834 3.48179 16.044 3.34137 16.2882C3.20096 16.5323 3.13544 16.8025 3.1509 17.0738C3.16636 17.3452 3.26228 17.6088 3.42979 17.8403C3.5973 18.0717 3.83096 18.2636 4.10913 18.3981C3.98638 18.7111 3.98028 19.0487 4.09168 19.3648C4.20308 19.681 4.42656 19.9603 4.73171 20.1648L4.73202 20.165C5.09249 20.4042 5.54172 20.5264 5.99893 20.5097C6.45614 20.493 6.89133 20.3385 7.22625 20.0739C7.57519 20.2409 7.97701 20.3109 8.37527 20.2742C8.77353 20.2375 9.14823 20.0958 9.44676 19.8692C9.53507 19.7998 9.61525 19.7233 9.68619 19.6408C9.74087 19.6475 9.79572 19.6537 9.85119 19.6563C9.86829 19.8946 9.94742 20.1268 10.0829 20.3361C10.2184 20.5454 10.4068 20.7266 10.6347 20.8667C10.8625 21.0068 11.1242 21.1023 11.4008 21.1464C11.6773 21.1905 11.962 21.182 12.2342 21.1216C12.3372 21.3441 12.4971 21.5444 12.7024 21.7082C12.9076 21.8719 13.1532 21.995 13.4212 22.0686C13.6893 22.1421 13.9733 22.1643 14.2527 22.1335C14.5321 22.1027 14.7999 22.0197 15.0369 21.8905C15.2157 22.0747 15.4403 22.223 15.6946 22.3247C15.9489 22.4265 16.2267 22.4792 16.5079 22.479C16.7891 22.4789 17.0667 22.4258 17.3209 22.3238C17.5751 22.2217 17.7994 22.0731 17.9778 21.8887C18.2152 22.0175 18.4833 22.1 18.7628 22.1303C19.0423 22.1605 19.3262 22.1379 19.5941 22.0638C19.862 21.9898 20.1072 21.8663 20.3121 21.7021C20.5169 21.538 20.6764 21.3374 20.7788 21.1147C21.0512 21.175 21.336 21.1833 21.6127 21.1388C21.8893 21.0944 22.1509 20.9984 22.3785 20.8578C22.6061 20.7172 22.794 20.5355 22.9288 20.3257C23.0635 20.116 23.1417 19.8834 23.1576 19.6449C23.2077 19.6425 23.2575 19.6384 23.3069 19.6325C23.3796 19.7182 23.4623 19.7975 23.5536 19.8692C23.8522 20.0959 24.227 20.2375 24.6254 20.2742C25.0237 20.3108 25.4256 20.2407 25.7745 20.0736C26.1093 20.3382 26.5445 20.4928 27.0017 20.5096C27.4588 20.5263 27.9081 20.404 28.2685 20.1648C28.5736 19.9603 28.7971 19.6809 28.9085 19.3648C29.0199 19.0487 29.0138 18.7112 28.8911 18.3981C29.1826 18.2569 29.425 18.0529 29.5936 17.8067C29.7623 17.5605 29.8512 17.2809 29.8515 16.9961ZM9.47776 17.775C9.41112 17.7797 9.34683 17.7981 9.29042 17.8286C9.23402 17.859 9.1872 17.9007 9.15399 17.9499C9.12078 17.9992 9.10218 18.0546 9.09979 18.1113C9.0974 18.168 9.1113 18.2243 9.14028 18.2754C9.24927 18.4672 9.27595 18.6853 9.21573 18.892C9.1555 19.0987 9.01215 19.281 8.8104 19.4076C8.60865 19.5343 8.36115 19.5971 8.11059 19.5855C7.86003 19.5738 7.62212 19.4883 7.43791 19.3437C7.39346 19.3088 7.34048 19.2826 7.28274 19.267C7.22501 19.2514 7.16393 19.2467 7.10384 19.2534C7.04376 19.2601 6.98615 19.2779 6.9351 19.3056C6.88406 19.3333 6.84083 19.3702 6.80849 19.4137C6.79351 19.4342 6.77688 19.4537 6.75874 19.4722C6.57905 19.6594 6.32004 19.7795 6.03725 19.8067C5.75445 19.8338 5.47037 19.7659 5.24591 19.6174C5.03595 19.477 4.89555 19.275 4.85237 19.0511C4.80919 18.8272 4.86635 18.5978 5.01259 18.4079C5.04724 18.3613 5.06859 18.3086 5.07495 18.2538C5.08132 18.199 5.07251 18.1437 5.04924 18.0923C5.02598 18.0409 4.98889 17.9948 4.94093 17.9578C4.89297 17.9207 4.83547 17.8936 4.77301 17.8787C3.77825 17.654 3.71533 16.4319 4.68549 16.1361C4.74876 16.1168 4.80551 16.0847 4.8508 16.0425C4.89608 16.0003 4.92853 15.9494 4.94532 15.8942C4.96211 15.8389 4.96273 15.781 4.94712 15.7255C4.93152 15.67 4.90017 15.6186 4.85579 15.5758C4.7046 15.4296 4.6123 15.2463 4.59232 15.0526C4.57233 14.8589 4.6257 14.6648 4.74466 14.4985C4.86362 14.3323 5.04197 14.2026 5.25378 14.1283C5.46559 14.054 5.69981 14.0389 5.92239 14.0854C5.98561 14.0987 6.05164 14.0991 6.1151 14.0867C6.17855 14.0742 6.23762 14.0491 6.28747 14.0135C6.33732 13.978 6.37653 13.9329 6.40189 13.882C6.42725 13.8311 6.43805 13.7758 6.43339 13.7207C6.41362 13.4869 6.5005 13.2557 6.67606 13.0747C6.85162 12.8938 7.10241 12.7771 7.37657 12.7487C7.65073 12.7202 7.92728 12.7823 8.149 12.9221C8.37072 13.0618 8.52066 13.2685 8.56779 13.4994C8.57303 13.5253 8.57715 13.5512 8.57968 13.5782C8.58455 13.6289 8.60239 13.6782 8.63196 13.7224C8.66153 13.7667 8.70212 13.805 8.75091 13.8346C8.79969 13.8642 8.8555 13.8844 8.91443 13.8939C8.97337 13.9033 9.03403 13.9017 9.09217 13.8892C9.33556 13.8376 9.59257 13.8596 9.8188 13.9517C10.045 14.0437 10.2263 14.1999 10.3312 14.3932C10.4362 14.5866 10.4582 14.805 10.3936 15.0106C10.3289 15.2163 10.1816 15.3964 9.97712 15.5197C9.9226 15.5525 9.87829 15.596 9.84799 15.6465C9.8177 15.6971 9.80232 15.7531 9.80319 15.8098C9.80407 15.8665 9.82116 15.9221 9.853 15.972C9.88484 16.0218 9.93047 16.0643 9.98598 16.0959C10.1664 16.1992 10.306 16.346 10.3868 16.5175C10.4676 16.6889 10.4858 16.877 10.4391 17.0573L10.4383 17.0595C10.4356 17.0671 10.4327 17.0752 10.4317 17.0785C10.4288 17.0875 10.4264 17.0966 10.4245 17.1057C10.4238 17.1075 10.4234 17.1088 10.4233 17.109C10.3641 17.2884 10.242 17.4482 10.0731 17.5672C9.90412 17.6862 9.69646 17.7587 9.47776 17.775ZM22.9607 18.9426C22.9075 18.9395 22.8547 18.933 22.8027 18.9231C22.7344 18.9096 22.6632 18.9111 22.5957 18.9274C22.5282 18.9437 22.4668 18.9744 22.4172 19.0165C22.3676 19.0586 22.3314 19.1107 22.3122 19.1679C22.2929 19.2251 22.2912 19.2856 22.3071 19.3436C22.3558 19.5186 22.3426 19.7019 22.269 19.8706C22.1954 20.0392 22.0647 20.1857 21.8934 20.2916C21.7221 20.3975 21.5178 20.4581 21.306 20.4659C21.0942 20.4736 20.8845 20.4282 20.7031 20.3352C20.643 20.3045 20.5746 20.2873 20.5045 20.2852C20.4344 20.2831 20.3648 20.2962 20.3024 20.3233C20.2399 20.3504 20.1866 20.3906 20.1475 20.44C20.1084 20.4894 20.0848 20.5465 20.079 20.6058C20.0611 20.785 19.9813 20.9557 19.8497 21.0966C19.7181 21.2376 19.5404 21.3424 19.3389 21.3982C19.1374 21.4539 18.921 21.4579 18.7168 21.4099C18.5126 21.3618 18.3296 21.2637 18.1907 21.1279C18.1448 21.0829 18.0862 21.0485 18.0203 21.0281C17.9544 21.0076 17.8835 21.0018 17.8142 21.011C17.7449 21.0203 17.6796 21.0445 17.6243 21.0811C17.5691 21.1178 17.5258 21.1659 17.4985 21.2207C17.4166 21.3863 17.2788 21.5277 17.1025 21.627C16.9261 21.7264 16.7191 21.7793 16.5074 21.779C16.295 21.7813 16.0868 21.7294 15.9097 21.6299C15.7326 21.5305 15.5948 21.3881 15.5144 21.2214C15.4869 21.1666 15.4435 21.1187 15.3882 21.0822C15.3329 21.0457 15.2675 21.0217 15.1982 21.0126C15.1289 21.0034 15.0581 21.0094 14.9923 21.03C14.9265 21.0505 14.868 21.085 14.8222 21.1301C14.6836 21.2662 14.5009 21.3646 14.2967 21.413C14.0926 21.4614 13.8761 21.4577 13.6745 21.4023C13.4728 21.3469 13.2948 21.2423 13.1629 21.1016C13.0309 20.9609 12.9507 20.7902 12.9325 20.611C12.9264 20.5517 12.9026 20.4947 12.8633 20.4454C12.8241 20.3961 12.7706 20.3561 12.7081 20.3291C12.6455 20.3022 12.5759 20.2893 12.5058 20.2915C12.4357 20.2938 12.3674 20.3112 12.3075 20.342C12.1262 20.4349 11.9168 20.4804 11.7053 20.4728C11.4937 20.4652 11.2895 20.405 11.1181 20.2995C10.9468 20.1941 10.8158 20.0482 10.7415 19.8799C10.6673 19.7117 10.6531 19.5287 10.7008 19.3537C10.7154 19.2959 10.7127 19.2359 10.6929 19.1792C10.6732 19.1225 10.6369 19.0709 10.5875 19.0292C10.5382 18.9874 10.4773 18.9569 10.4104 18.9403C10.3435 18.9238 10.2727 18.9217 10.2047 18.9344C10.1497 18.945 10.0938 18.9518 10.0376 18.9547C10.0784 18.7647 10.079 18.57 10.0394 18.3798C10.322 18.2916 10.576 18.1479 10.7806 17.9604C10.9852 17.7729 11.1346 17.547 11.2165 17.3012C11.2168 17.3006 11.2274 17.2694 11.2276 17.2687C11.2313 17.2581 11.2344 17.2473 11.2368 17.2364C11.2375 17.2342 11.2381 17.232 11.2388 17.2298C11.3074 16.9803 11.3055 16.7206 11.2332 16.4718C11.161 16.223 11.0204 15.9922 10.823 15.7983C11.0535 15.5601 11.1987 15.271 11.2415 14.965C11.2843 14.659 11.2229 14.349 11.0646 14.0717C10.9062 13.7943 10.6576 13.5613 10.348 13.4002C10.0384 13.239 9.68096 13.1565 9.31786 13.1624C9.20674 12.8688 8.99885 12.6084 8.71878 12.4119C8.43871 12.2154 8.09818 12.0911 7.73747 12.0536C7.71057 11.9287 7.71473 11.8004 7.74967 11.6769C7.78462 11.5535 7.84959 11.4375 7.94041 11.3366C8.03123 11.2357 8.1459 11.1519 8.27707 11.0908C8.40824 11.0297 8.55302 10.9924 8.70214 10.9815C8.77202 10.9764 8.83921 10.9562 8.89734 10.9229C8.95548 10.8896 9.00264 10.8442 9.03437 10.7912C9.06611 10.7381 9.08136 10.679 9.0787 10.6195C9.07604 10.56 9.05555 10.5021 9.01916 10.4512C8.9094 10.2974 8.85552 10.1196 8.86424 9.93992C8.87296 9.76027 8.9439 9.58678 9.0682 9.44115C9.1925 9.29552 9.36463 9.18421 9.56308 9.12114C9.76152 9.05806 9.97748 9.04602 10.184 9.08652C10.2523 9.09986 10.3236 9.09819 10.391 9.08166C10.4584 9.06512 10.5197 9.03428 10.5691 8.99204C10.6186 8.9498 10.6545 8.89757 10.6735 8.84027C10.6925 8.78297 10.694 8.7225 10.6778 8.66458C10.6294 8.48973 10.6428 8.30665 10.7163 8.13823C10.7899 7.96981 10.9203 7.8235 11.0912 7.71759C11.2622 7.61168 11.4661 7.55086 11.6776 7.54274C11.8891 7.53461 12.0986 7.57954 12.2802 7.67191C12.3403 7.70235 12.4086 7.71932 12.4785 7.7212C12.5485 7.72309 12.6179 7.70984 12.6802 7.68269C12.7424 7.65555 12.7955 7.6154 12.8345 7.56604C12.8734 7.51668 12.8969 7.45972 12.9028 7.40052C12.9201 7.22117 12.9993 7.05013 13.1306 6.90882C13.262 6.76751 13.4395 6.66221 13.641 6.6061C13.8425 6.54999 14.059 6.54557 14.2635 6.59339C14.468 6.64121 14.6513 6.73914 14.7904 6.87493C14.8364 6.91985 14.8952 6.95404 14.9612 6.97424C15.0271 6.99445 15.0981 7 15.1673 6.99037C15.4664 6.94932 15.5171 6.65797 15.7027 6.4962C15.8029 6.40952 15.9224 6.34057 16.0543 6.29333C16.1861 6.24609 16.3277 6.2215 16.4709 6.22099H16.4742C16.753 6.22141 17.0209 6.3131 17.2221 6.47697C17.4181 6.63724 17.4787 6.94512 17.7826 6.98456C17.8519 6.99365 17.9228 6.98756 17.9886 6.96687C18.0543 6.94617 18.1128 6.91155 18.1583 6.8663C18.2966 6.7301 18.479 6.6315 18.6829 6.58284C18.8869 6.53418 19.1031 6.53762 19.3048 6.59272C19.5064 6.64782 19.6844 6.75214 19.8165 6.89263C19.9486 7.03312 20.029 7.20354 20.0475 7.38258C20.0536 7.44196 20.0774 7.49905 20.1168 7.54843C20.1561 7.59781 20.2096 7.63785 20.2723 7.66474C20.335 7.69164 20.4048 7.70451 20.475 7.70213C20.5452 7.69975 20.6135 7.6822 20.6734 7.65115C20.8544 7.55773 21.0639 7.51168 21.2756 7.51876C21.4873 7.52584 21.6918 7.58574 21.8636 7.69095C22.0353 7.79617 22.1667 7.94203 22.2413 8.11028C22.3158 8.27854 22.3303 8.46171 22.2827 8.63689C22.267 8.6949 22.269 8.75536 22.2885 8.81255C22.308 8.86974 22.3443 8.92176 22.3941 8.96371C22.4439 9.00566 22.5054 9.03614 22.573 9.05228C22.6405 9.06841 22.7118 9.06967 22.78 9.05593C22.986 9.01431 23.2019 9.02519 23.4006 9.08719C23.5993 9.14919 23.7721 9.25956 23.8972 9.40447C24.0223 9.54939 24.0943 9.72242 24.1041 9.90188C24.1138 10.0813 24.061 10.2593 23.9521 10.4133C23.9172 10.4646 23.8979 10.5225 23.8962 10.5817C23.8944 10.6409 23.9103 10.6995 23.9422 10.7521C23.9741 10.8048 24.0212 10.8498 24.079 10.883C24.1367 10.9162 24.2034 10.9365 24.2729 10.9422C24.4269 10.9528 24.5765 10.9913 24.7114 11.0553C24.8463 11.1192 24.9634 11.2071 25.0548 11.3128C25.1462 11.4185 25.2097 11.5397 25.2411 11.6681C25.2724 11.7965 25.2709 11.9291 25.2365 12.0569C24.8809 12.0979 24.5462 12.2235 24.2712 12.4191C23.9961 12.6147 23.792 12.8724 23.6823 13.1623C23.3192 13.1565 22.9617 13.239 22.6522 13.4001C22.3426 13.5613 22.094 13.7943 21.9356 14.0716C21.7773 14.3489 21.7159 14.6589 21.7587 14.9649C21.8015 15.2709 21.9467 15.5601 22.1772 15.7983C21.9798 15.9922 21.8393 16.223 21.767 16.4717C21.6948 16.7205 21.6929 16.9803 21.7614 17.2298C21.7645 17.2406 21.7681 17.2513 21.7722 17.2617C21.7749 17.2737 21.7783 17.2854 21.7822 17.2969C21.8639 17.5436 22.0133 17.7703 22.2182 17.9585C22.4231 18.1467 22.6776 18.2911 22.9609 18.3798C22.9223 18.5659 22.9223 18.7564 22.9607 18.9426H22.9607ZM28.2272 17.8787C28.1648 17.8936 28.1073 17.9207 28.0593 17.9577C28.0113 17.9948 27.9742 18.0409 27.951 18.0923C27.9277 18.1437 27.9189 18.199 27.9252 18.2538C27.9316 18.3086 27.9529 18.3613 27.9876 18.4079C28.1338 18.5977 28.191 18.8271 28.1478 19.051C28.1047 19.2748 27.9644 19.4768 27.7545 19.6173C27.5287 19.7663 27.2428 19.8341 26.9586 19.8058C26.6744 19.7775 26.4147 19.6555 26.2356 19.4662C26.2196 19.4495 26.2049 19.432 26.1916 19.4137C26.1593 19.3702 26.1161 19.3333 26.065 19.3056C26.014 19.2779 25.9563 19.2601 25.8963 19.2534C25.8362 19.247 25.7752 19.2517 25.7175 19.2673C25.6598 19.2829 25.6068 19.309 25.5622 19.3437C25.378 19.4883 25.1401 19.5737 24.8896 19.5854C24.6391 19.597 24.3916 19.5341 24.1899 19.4075C23.9881 19.2809 23.8448 19.0986 23.7846 18.8919C23.7244 18.6853 23.751 18.4672 23.86 18.2755C23.8889 18.2243 23.9028 18.168 23.9004 18.1113C23.898 18.0546 23.8794 17.9992 23.8462 17.95C23.813 17.9007 23.7661 17.8591 23.7097 17.8286C23.6533 17.7981 23.589 17.7797 23.5224 17.775C23.3037 17.7587 23.0961 17.6862 22.9271 17.5672C22.7582 17.4482 22.6361 17.2884 22.577 17.109C22.5768 17.1088 22.5764 17.1076 22.5758 17.1058C22.5738 17.0967 22.5714 17.0875 22.5685 17.0785C22.5681 17.0773 22.5677 17.0761 22.5674 17.0749C22.5649 17.0654 22.5618 17.056 22.5585 17.0468C22.5148 16.8678 22.5347 16.6818 22.6159 16.5125C22.697 16.3432 22.8357 16.1982 23.0142 16.0959C23.0697 16.0643 23.1153 16.0218 23.1472 15.972C23.179 15.9221 23.1961 15.8665 23.197 15.8098C23.1979 15.7531 23.1825 15.6971 23.1522 15.6465C23.1219 15.596 23.0776 15.5525 23.0231 15.5197C22.8186 15.3964 22.6713 15.2163 22.6066 15.0106C22.5419 14.805 22.564 14.5866 22.6689 14.3932C22.7739 14.1999 22.9551 14.0437 23.1814 13.9517C23.4076 13.8596 23.6646 13.8376 23.908 13.8892C23.9662 13.9017 24.0268 13.9033 24.0858 13.8939C24.1447 13.8844 24.2005 13.8642 24.2493 13.8346C24.2981 13.805 24.3387 13.7667 24.3682 13.7224C24.3978 13.6782 24.4156 13.6289 24.4205 13.5782C24.423 13.5512 24.4272 13.5253 24.4324 13.4994C24.4797 13.2687 24.6297 13.0621 24.8514 12.9225C25.0731 12.7829 25.3495 12.7209 25.6235 12.7493C25.8976 12.7777 26.1483 12.8943 26.3238 13.0751C26.4994 13.2559 26.5864 13.487 26.5668 13.7207C26.5621 13.7758 26.5729 13.8311 26.5983 13.882C26.6237 13.9329 26.6629 13.978 26.7127 14.0135C26.7626 14.0491 26.8216 14.0742 26.8851 14.0867C26.9485 14.0991 27.0146 14.0987 27.0778 14.0854C27.3004 14.0389 27.5346 14.054 27.7464 14.1283C27.9582 14.2026 28.1366 14.3323 28.2556 14.4985C28.3745 14.6648 28.4279 14.8589 28.4079 15.0526C28.3879 15.2463 28.2956 15.4296 28.1444 15.5758C28.1 15.6186 28.0687 15.6701 28.0531 15.7256C28.0375 15.7811 28.0382 15.8389 28.055 15.8942C28.0718 15.9494 28.1042 16.0003 28.1495 16.0425C28.1948 16.0847 28.2515 16.1168 28.3148 16.1361C29.2848 16.4319 29.222 17.654 28.2273 17.8787H28.2272Z" fill="black"/>
<path d="M14.273 15.3832V14.8288C14.273 14.6199 14.1752 14.4196 14.0012 14.2719C13.8271 14.1242 13.591 14.0413 13.3449 14.0413C13.0987 14.0413 12.8626 14.1242 12.6886 14.2719C12.5145 14.4196 12.4167 14.6199 12.4167 14.8288V15.3832C12.4167 15.5921 12.5145 15.7924 12.6886 15.9401C12.8626 16.0878 13.0987 16.1707 13.3449 16.1707C13.591 16.1707 13.8271 16.0878 14.0012 15.9401C14.1752 15.7924 14.273 15.5921 14.273 15.3832Z" fill="black"/>
<path d="M19.6518 14.0413C19.4057 14.0415 19.1698 14.1246 18.9958 14.2722C18.8218 14.4198 18.7239 14.62 18.7236 14.8288V15.3832C18.7236 15.5921 18.8214 15.7924 18.9955 15.9401C19.1695 16.0878 19.4056 16.1707 19.6518 16.1707C19.8979 16.1707 20.134 16.0878 20.308 15.9401C20.4821 15.7924 20.5799 15.5921 20.5799 15.3832V14.8288C20.5796 14.62 20.4817 14.4198 20.3077 14.2722C20.1337 14.1245 19.8978 14.0415 19.6518 14.0413Z" fill="black"/>
</svg>
