<svg width="33" height="33" viewBox="0 0 33 33" fill="none" xmlns="http://www.w3.org/2000/svg">
<path d="M6.1875 26.8125H7.7L24.3719 10.1406L23.6156 9.38438L22.8594 8.62813L6.1875 25.3V26.8125ZM4.125 28.875V24.475L24.3375 4.2625C24.7271 3.87292 25.2141 3.68386 25.7984 3.69532C26.3828 3.70677 26.8698 3.90729 27.2594 4.29688L28.7375 5.775C29.1271 6.16459 29.3219 6.64584 29.3219 7.21875C29.3219 7.79167 29.1271 8.27292 28.7375 8.6625L8.525 28.875H4.125ZM27.1562 7.18438L25.7469 5.775L27.1562 7.18438ZM24.3719 10.1406L23.6156 9.38438L22.8594 8.62813L24.3719 10.1406Z" fill="black"/>
</svg>
