<svg width="36" height="32" viewBox="0 0 36 32" fill="none" xmlns="http://www.w3.org/2000/svg">
<path d="M6 17.3333C7.65 17.3333 9 16.1333 9 14.6667C9 13.2 7.65 12 6 12C4.35 12 3 13.2 3 14.6667C3 16.1333 4.35 17.3333 6 17.3333ZM7.695 18.8C7.14 18.72 6.585 18.6667 6 18.6667C4.515 18.6667 3.105 18.9467 1.83 19.44C0.72 19.8667 0 20.8267 0 21.9067V24H6.75V21.8533C6.75 20.7467 7.095 19.7067 7.695 18.8ZM30 17.3333C31.65 17.3333 33 16.1333 33 14.6667C33 13.2 31.65 12 30 12C28.35 12 27 13.2 27 14.6667C27 16.1333 28.35 17.3333 30 17.3333ZM36 21.9067C36 20.8267 35.28 19.8667 34.17 19.44C32.895 18.9467 31.485 18.6667 30 18.6667C29.415 18.6667 28.86 18.72 28.305 18.8C28.905 19.7067 29.25 20.7467 29.25 21.8533V24H36V21.9067ZM24.36 18.2C22.605 17.5067 20.445 17 18 17C15.555 17 13.395 17.52 11.64 18.2C10.02 18.84 9 20.28 9 21.8533V24H27V21.8533C27 20.28 25.98 18.84 24.36 18.2ZM12.105 21.3333C12.24 21.0267 12.3 20.8133 13.47 20.4133C14.925 19.9067 16.455 19.6667 18 19.6667C19.545 19.6667 21.075 19.9067 22.53 20.4133C23.685 20.8133 23.745 21.0267 23.895 21.3333H12.105ZM18 10.6667C18.825 10.6667 19.5 11.2667 19.5 12C19.5 12.7333 18.825 13.3333 18 13.3333C17.175 13.3333 16.5 12.7333 16.5 12C16.5 11.2667 17.175 10.6667 18 10.6667ZM18 8C15.51 8 13.5 9.78667 13.5 12C13.5 14.2133 15.51 16 18 16C20.49 16 22.5 14.2133 22.5 12C22.5 9.78667 20.49 8 18 8Z" fill="black"/>
</svg>
