<svg width="37" height="24" viewBox="0 0 37 24" fill="none" xmlns="http://www.w3.org/2000/svg">
<path d="M18.5 6C20.1958 6 21.5833 6.9 21.5833 8C21.5833 9.1 20.1958 10 18.5 10C16.8042 10 15.4167 9.1 15.4167 8C15.4167 6.9 16.8042 6 18.5 6ZM18.5 16C22.6625 16 27.4417 17.29 27.75 18H9.24999C9.60457 17.28 14.3529 16 18.5 16ZM18.5 4C15.0929 4 12.3333 5.79 12.3333 8C12.3333 10.21 15.0929 12 18.5 12C21.9071 12 24.6667 10.21 24.6667 8C24.6667 5.79 21.9071 4 18.5 4ZM18.5 14C14.3837 14 6.16666 15.34 6.16666 18V20H30.8333V18C30.8333 15.34 22.6162 14 18.5 14Z" fill="black"/>
</svg>
