<svg width="30" height="30" viewBox="0 0 30 30" fill="none" xmlns="http://www.w3.org/2000/svg">
<path d="M5.625 15C7.35089 15 8.75 13.6009 8.75 11.875C8.75 10.1491 7.35089 8.75 5.625 8.75C3.89911 8.75 2.5 10.1491 2.5 11.875C2.5 13.6009 3.89911 15 5.625 15Z" fill="black"/>
<path d="M11.25 10C12.9759 10 14.375 8.60089 14.375 6.875C14.375 5.14911 12.9759 3.75 11.25 3.75C9.52411 3.75 8.125 5.14911 8.125 6.875C8.125 8.60089 9.52411 10 11.25 10Z" fill="black"/>
<path d="M18.75 10C20.4759 10 21.875 8.60089 21.875 6.875C21.875 5.14911 20.4759 3.75 18.75 3.75C17.0241 3.75 15.625 5.14911 15.625 6.875C15.625 8.60089 17.0241 10 18.75 10Z" fill="black"/>
<path d="M24.375 15C26.1009 15 27.5 13.6009 27.5 11.875C27.5 10.1491 26.1009 8.75 24.375 8.75C22.6491 8.75 21.25 10.1491 21.25 11.875C21.25 13.6009 22.6491 15 24.375 15Z" fill="black"/>
<path d="M21.6751 18.575C20.5876 17.3 19.6751 16.2125 18.5751 14.9375C18.0001 14.2625 17.2626 13.5875 16.3876 13.2875C16.2501 13.2375 16.1126 13.2 15.9751 13.175C15.6626 13.125 15.3251 13.125 15.0001 13.125C14.6751 13.125 14.3376 13.125 14.0126 13.1875C13.8751 13.2125 13.7376 13.25 13.6001 13.3C12.7251 13.6 12.0001 14.275 11.4126 14.95C10.3251 16.225 9.41256 17.3125 8.31256 18.5875C6.67506 20.225 4.66256 22.0375 5.03756 24.575C5.40006 25.85 6.31256 27.1125 7.95006 27.475C8.86256 27.6625 11.7751 26.925 14.8751 26.925H15.1001C18.2001 26.925 21.1126 27.65 22.0251 27.475C23.6626 27.1125 24.5751 25.8375 24.9376 24.575C25.3251 22.025 23.3126 20.2125 21.6751 18.575Z" fill="black"/>
</svg>
