<svg width="33" height="36" viewBox="0 0 33 36" fill="none" xmlns="http://www.w3.org/2000/svg">
<path d="M6.1875 18C8.08598 18 9.625 16.3211 9.625 14.25C9.625 12.1789 8.08598 10.5 6.1875 10.5C4.28902 10.5 2.75 12.1789 2.75 14.25C2.75 16.3211 4.28902 18 6.1875 18Z" fill="black"/>
<path d="M12.375 12C14.2735 12 15.8125 10.3211 15.8125 8.25C15.8125 6.17893 14.2735 4.5 12.375 4.5C10.4765 4.5 8.9375 6.17893 8.9375 8.25C8.9375 10.3211 10.4765 12 12.375 12Z" fill="black"/>
<path d="M20.625 12C22.5235 12 24.0625 10.3211 24.0625 8.25C24.0625 6.17893 22.5235 4.5 20.625 4.5C18.7265 4.5 17.1875 6.17893 17.1875 8.25C17.1875 10.3211 18.7265 12 20.625 12Z" fill="black"/>
<path d="M26.8125 18C28.711 18 30.25 16.3211 30.25 14.25C30.25 12.1789 28.711 10.5 26.8125 10.5C24.914 10.5 23.375 12.1789 23.375 14.25C23.375 16.3211 24.914 18 26.8125 18Z" fill="black"/>
<path d="M23.8424 22.29C22.6461 20.76 21.6424 19.455 20.4324 17.925C19.7999 17.115 18.9886 16.305 18.0261 15.945C17.8749 15.885 17.7236 15.84 17.5724 15.81C17.2286 15.75 16.8574 15.75 16.4999 15.75C16.1424 15.75 15.7711 15.75 15.4136 15.825C15.2624 15.855 15.1111 15.9 14.9599 15.96C13.9974 16.32 13.1999 17.13 12.5536 17.94C11.3574 19.47 10.3536 20.775 9.14364 22.305C7.34239 24.27 5.12864 26.445 5.54114 29.49C5.93989 31.02 6.94364 32.535 8.74489 32.97C9.74864 33.195 12.9524 32.31 16.3624 32.31H16.6099C20.0199 32.31 23.2236 33.18 24.2274 32.97C26.0286 32.535 27.0324 31.005 27.4311 29.49C27.8574 26.43 25.6436 24.255 23.8424 22.29Z" fill="black"/>
</svg>
